<svg width="40" height="38" viewBox="0 0 40 38" fill="none" xmlns="http://www.w3.org/2000/svg">
<path fill-rule="evenodd" clip-rule="evenodd" d="M10.6995 36.0382C10.0215 36.0382 9.5978 35.5238 9.5978 34.6823C9.5978 30.7058 17.4881 21.6734 25.3593 14.017C24.0285 22.6159 15.2352 36.0382 10.6995 36.0382ZM38.9442 0.502897C37.8611 0.528999 35.6391 0.613067 33.6898 0.641033C33.0042 0.650863 32.7303 0.958914 32.8181 1.40112C32.9217 1.92222 33.2651 2.30807 33.7818 2.32171C34.4471 2.33934 35.3382 2.22824 36.4808 2.17205C33.8834 4.17052 30.7408 6.7973 27.4985 9.71985C27.1176 6.77959 25.7545 4.42807 23.0724 4.42807C19.1741 4.42807 15.2758 10.3603 13.5808 13.6654C13.4114 10.9535 12.2249 8.41112 9.68254 8.41112C4.39678 8.41112 0 20.4391 0 22.239C0 22.8543 0.703729 23.3264 1.12746 23.3264C1.63593 23.3264 1.80119 23.0721 1.97068 22.4789C4.17407 15.2755 7.47915 10.2755 9.68254 10.2755C10.7842 10.2755 11.6317 11.5467 11.6317 14.5128C11.6317 16.6952 11.2599 18.0203 11.2599 18.5374C11.2599 19.3454 11.9707 19.767 12.3944 19.767C12.9029 19.767 13.0724 19.5128 13.3266 18.9196C15.869 12.6484 20.0215 6.37722 22.9876 6.37722C24.4482 6.37722 25.4419 8.2429 25.5238 11.5258C16.631 19.7761 7.67136 29.7181 7.67136 34.6089C7.67136 36.6444 8.79373 37.8179 10.6147 37.8179C17.1527 37.8179 27.3851 21.5688 27.6078 11.866C31.2462 8.44256 34.7155 5.45307 37.2122 3.55086C36.8278 4.50468 36.4403 5.43239 36.2432 6.12485C36.0989 6.63146 36.1868 7.18849 36.8094 7.43061C37.2031 7.58375 37.5541 7.3618 37.7084 6.92171C38.6466 4.24468 39.13 3.14663 39.7039 1.61502C40.0792 0.613236 40.0392 0.476541 38.9442 0.502897Z" fill="#0B3B3C"/>
</svg>
